<svg xmlns="http://www.w3.org/2000/svg" viewBox="0 0 1200 630">
  <defs>
    <linearGradient id="bg" x1="0" y1="0" x2="1" y2="1">
      <stop offset="0%" stop-color="#0E2A47"/>
      <stop offset="100%" stop-color="#163d63"/>
    </linearGradient>
    <pattern id="stripes" width="28" height="28" patternUnits="userSpaceOnUse" patternTransform="rotate(45)">
      <line x1="0" y1="0" x2="0" y2="28" stroke="#ffffff" stroke-opacity="0.06" stroke-width="2"/>
    </pattern>
  </defs>
  <rect width="1200" height="630" fill="url(#bg)"/>
  <rect width="1200" height="630" fill="url(#stripes)"/>
  <circle cx="1080" cy="120" r="220" fill="#D7263D" opacity="0.15"/>
  <g transform="translate(80 110)">
    <rect width="86" height="86" rx="22" fill="#D7263D"/>
    <path d="M14 60c12-9 20-9 36 0s24 9 36 0" stroke="#fff" stroke-width="6" stroke-linecap="round" fill="none" transform="translate(-3 0)"/>
    <path d="M14 44c12-9 20-9 36 0s24 9 36 0" stroke="#fff" stroke-width="5" stroke-linecap="round" fill="none" opacity="0.8" transform="translate(-3 0)"/>
  </g>
  <g font-family="Manrope, system-ui, sans-serif" fill="#ffffff">
    <text x="200" y="160" font-size="32" font-weight="700" letter-spacing="6" fill="#A8D5BA">COASTLINE SOLUTIONS</text>
    <text x="80" y="290" font-size="76" font-weight="800">Does your home or building</text>
    <text x="80" y="370" font-size="76" font-weight="800">need a freshen up?</text>
    <text x="80" y="450" font-size="30" font-weight="500" fill="#cfd8e3">Painting · Pressure &amp; Soft Washing · Lawn &amp; Garden</text>
    <text x="80" y="540" font-size="30" font-weight="700" fill="#fff">Call Blake — 0452 263 112</text>
    <text x="80" y="580" font-size="22" font-weight="500" fill="#A8D5BA">Local · Insured · Free Quotes</text>
  </g>
</svg>
